<svg xmlns="http://www.w3.org/2000/svg"  viewBox="0 0 32 32" width="64px" height="64px"><path d="M26.136,19.849c0.973-0.266,1.781-0.875,2.299-1.769c0.734-1.263,0.733-2.896-0.002-4.158 c-0.52-0.894-1.329-1.497-2.326-1.762c1.653-0.134,2.894-1.481,2.893-3.162c-0.001-1.696-1.267-3.056-2.967-3.163L8.1,5.002 C6.581,5,5.29,5.675,4.565,6.924c-0.733,1.263-0.732,2.895,0.002,4.158c0.519,0.892,1.326,1.5,2.297,1.767 C5.227,12.995,4,14.334,4,16.004c0.001,1.681,1.246,3.029,2.901,3.157c-0.988,0.264-1.812,0.859-2.337,1.763 c-0.733,1.263-0.732,2.895,0.002,4.158C5.278,26.305,6.525,27,8.059,27c0.035,0,0.071,0,0.106-0.001l17.893-0.831 c1.678-0.109,2.943-1.472,2.942-3.17C28.999,21.33,27.772,19.995,26.136,19.849z" opacity=".3"/><path fill="#fff" d="M25.136,18.849c0.973-0.266,1.781-0.875,2.299-1.769c0.734-1.263,0.733-2.896-0.002-4.158 c-0.52-0.894-1.329-1.497-2.326-1.762C26.76,11.026,28.001,9.679,28,7.998c-0.001-1.696-1.267-3.056-2.967-3.163L7.1,4.002 C5.581,4,4.29,4.675,3.565,5.924c-0.733,1.263-0.732,2.895,0.002,4.158c0.519,0.892,1.326,1.5,2.297,1.767 C4.227,11.995,3,13.334,3,15.004c0.001,1.681,1.246,3.029,2.901,3.157c-0.988,0.264-1.812,0.859-2.337,1.763 c-0.733,1.263-0.732,2.895,0.002,4.158C4.278,25.305,5.525,26,7.059,26c0.035,0,0.071,0,0.106-0.001l17.893-0.831 c1.678-0.109,2.943-1.472,2.942-3.17C27.999,20.33,26.772,18.995,25.136,18.849z"/><path d="M25,9.17L7,10c-1.104,0.051-2.041-0.803-2.092-1.908C4.847,6.923,5.831,5.941,7,6l18,0.83 C26.467,6.915,26.469,9.083,25,9.17L25,9.17z"/><path d="M25,23.17L7,24c-1.104,0.051-2.041-0.803-2.092-1.908C4.847,20.923,5.831,19.941,7,20l18,0.83 C26.467,20.915,26.469,23.083,25,23.17L25,23.17z"/><path d="M6,13.83L24,13c2.756-0.041,2.764,4.039,0,4c0,0-18-0.83-18-0.83C4.532,16.085,4.531,13.918,6,13.83L6,13.83z"/></svg>